<svg xmlns="http://www.w3.org/2000/svg" viewBox="0 0 100 100"><path d="M54.8 49.9 L56.4 49.7 L57.7 49.4 L58.7 49.1" stroke="#2f8ca3" stroke-width="1.50" opacity="1.00" fill="none" stroke-linecap="round" stroke-linejoin="round"/><path d="M58.7 49.1 L59.6 48.7 L60.5 48.4 L61.2 47.9 L61.9 47.5 L62.5 47.0" stroke="#2f8ca3" stroke-width="1.50" opacity="1.00" fill="none" stroke-linecap="round" stroke-linejoin="round"/><path d="M63.1 46.5 L63.6 46.0 L64.1 45.5 L64.5 44.9 L64.9 44.3 L65.3 43.7 L65.6 43.1 L65.9 42.5" stroke="#2f8ca3" stroke-width="1.50" opacity="1.00" fill="none" stroke-linecap="round" stroke-linejoin="round"/><path d="M65.9 42.5 L66.1 41.9 L66.3 41.2 L66.5 40.6 L66.6 39.9 L66.8 39.2 L66.8 38.6 L66.9 37.9 L66.9 37.2 L66.9 36.5 L66.8 35.8" stroke="#2f8ca3" stroke-width="1.33" opacity="0.83" fill="none" stroke-linecap="round" stroke-linejoin="round"/><path d="M66.8 35.8 L66.8 35.1 L66.7 34.4 L66.5 33.7 L66.3 33.0 L66.2 32.3 L65.9 31.6 L65.7 30.9 L65.4 30.2 L65.1 29.6 L64.8 28.9 L64.4 28.2 L64.0 27.6" stroke="#2f8ca3" stroke-width="0.93" opacity="0.41" fill="none" stroke-linecap="round" stroke-linejoin="round"/><path d="M64.0 27.6 L63.6 26.9 L63.1 26.3 L62.7 25.7 L62.2 25.1 L61.7 24.5 L61.1 23.9 L60.5 23.3 L59.9 22.8 L59.3 22.2 L58.7 21.7 L58.0 21.2 L57.4 20.7 L56.7 20.2 L55.9 19.8" stroke="#2f8ca3" stroke-width="0.58" opacity="0.06" fill="none" stroke-linecap="round" stroke-linejoin="round"/><path d="M45.8 54.1 L44.9 55.2 L44.3 56.1" stroke="#2f8ca3" stroke-width="1.50" opacity="1.00" fill="none" stroke-linecap="round" stroke-linejoin="round"/><path d="M43.8 57.0 L43.4 57.9 L43.1 58.7 L42.8 59.5 L42.7 60.3 L42.5 61.0" stroke="#2f8ca3" stroke-width="1.50" opacity="1.00" fill="none" stroke-linecap="round" stroke-linejoin="round"/><path d="M42.5 61.0 L42.5 61.8 L42.5 62.5 L42.5 63.2 L42.6 63.9 L42.7 64.6 L42.8 65.2 L43.0 65.9" stroke="#2f8ca3" stroke-width="1.50" opacity="1.00" fill="none" stroke-linecap="round" stroke-linejoin="round"/><path d="M43.2 66.5 L43.5 67.2 L43.8 67.8 L44.1 68.4 L44.5 69.0 L44.8 69.5 L45.3 70.1 L45.7 70.6 L46.2 71.1 L46.6 71.6" stroke="#2f8ca3" stroke-width="1.33" opacity="0.83" fill="none" stroke-linecap="round" stroke-linejoin="round"/><path d="M46.6 71.6 L47.2 72.1 L47.7 72.6 L48.2 73.0 L48.8 73.4 L49.4 73.8 L50.0 74.2 L50.7 74.6 L51.3 74.9 L52.0 75.2 L52.7 75.5 L53.4 75.7 L54.1 76.0" stroke="#2f8ca3" stroke-width="0.93" opacity="0.41" fill="none" stroke-linecap="round" stroke-linejoin="round"/><path d="M54.1 76.0 L54.9 76.2 L55.6 76.4 L56.4 76.5 L57.1 76.7 L57.9 76.8 L58.7 76.9 L59.5 76.9 L60.3 77.0 L61.1 77.0 L62.0 77.0 L62.8 76.9 L63.6 76.8 L64.4 76.7 L65.3 76.6 L66.1 76.4" stroke="#2f8ca3" stroke-width="0.58" opacity="0.06" fill="none" stroke-linecap="round" stroke-linejoin="round"/><path d="M50.5 44.7 L50.4 43.2 L50.3 42.0" stroke="#2f8ca3" stroke-width="1.50" opacity="1.00" fill="none" stroke-linecap="round" stroke-linejoin="round"/><path d="M50.1 41.0 L49.8 40.0 L49.5 39.2 L49.2 38.4 L48.8 37.7 L48.4 37.0" stroke="#2f8ca3" stroke-width="1.50" opacity="1.00" fill="none" stroke-linecap="round" stroke-linejoin="round"/><path d="M48.4 37.0 L48.0 36.4 L47.5 35.9 L47.1 35.3 L46.5 34.8 L46.0 34.4 L45.5 34.0 L44.9 33.6 L44.3 33.3" stroke="#2f8ca3" stroke-width="1.50" opacity="1.00" fill="none" stroke-linecap="round" stroke-linejoin="round"/><path d="M44.3 33.3 L43.7 32.9 L43.1 32.7 L42.4 32.4 L41.8 32.2 L41.1 32.0 L40.5 31.9 L39.8 31.8 L39.1 31.7 L38.4 31.6 L37.7 31.6" stroke="#2f8ca3" stroke-width="1.33" opacity="0.83" fill="none" stroke-linecap="round" stroke-linejoin="round"/><path d="M37.7 31.6 L37.0 31.6 L36.3 31.6 L35.6 31.7 L34.9 31.7 L34.2 31.9 L33.5 32.0 L32.8 32.2 L32.0 32.4 L31.3 32.6 L30.6 32.9 L29.9 33.2 L29.2 33.5" stroke="#2f8ca3" stroke-width="0.93" opacity="0.41" fill="none" stroke-linecap="round" stroke-linejoin="round"/><path d="M29.2 33.5 L28.5 33.8 L27.9 34.2 L27.2 34.6 L26.5 35.0 L25.9 35.5 L25.2 36.0 L24.6 36.5 L24.0 37.0 L23.4 37.5 L22.8 38.1 L22.2 38.7 L21.7 39.3 L21.1 40.0 L20.6 40.6" stroke="#2f8ca3" stroke-width="0.58" opacity="0.06" fill="none" stroke-linecap="round" stroke-linejoin="round"/><path d="M53.8 55.0 L54.8 55.9 L55.6 56.6" stroke="#2f8ca3" stroke-width="1.50" opacity="1.00" fill="none" stroke-linecap="round" stroke-linejoin="round"/><path d="M55.6 56.6 L56.5 57.2 L57.2 57.6 L58.0 58.0 L58.8 58.3 L59.5 58.6" stroke="#2f8ca3" stroke-width="1.50" opacity="1.00" fill="none" stroke-linecap="round" stroke-linejoin="round"/><path d="M60.2 58.8 L61.0 58.9 L61.7 59.0 L62.4 59.0 L63.1 59.0 L63.8 59.0 L64.5 58.9 L65.1 58.8" stroke="#2f8ca3" stroke-width="1.50" opacity="1.00" fill="none" stroke-linecap="round" stroke-linejoin="round"/><path d="M65.1 58.8 L65.8 58.7 L66.4 58.5 L67.1 58.2 L67.7 58.0 L68.3 57.7 L68.9 57.4 L69.5 57.0 L70.1 56.7 L70.7 56.2 L71.2 55.8" stroke="#2f8ca3" stroke-width="1.33" opacity="0.83" fill="none" stroke-linecap="round" stroke-linejoin="round"/><path d="M71.2 55.8 L71.7 55.4 L72.3 54.9 L72.8 54.4 L73.2 53.8 L73.7 53.3 L74.2 52.7 L74.6 52.1 L75.0 51.5 L75.4 50.9 L75.7 50.2 L76.1 49.5 L76.4 48.8" stroke="#2f8ca3" stroke-width="0.93" opacity="0.41" fill="none" stroke-linecap="round" stroke-linejoin="round"/><path d="M76.4 48.8 L76.7 48.1 L76.9 47.4 L77.2 46.7 L77.4 45.9 L77.6 45.1 L77.8 44.4 L77.9 43.6 L78.1 42.8 L78.2 42.0 L78.2 41.2 L78.3 40.3 L78.3 39.5 L78.3 38.7 L78.2 37.8" stroke="#2f8ca3" stroke-width="0.58" opacity="0.06" fill="none" stroke-linecap="round" stroke-linejoin="round"/><path d="M43.0 48.8 L41.8 48.8" stroke="#2f8ca3" stroke-width="1.50" opacity="1.00" fill="none" stroke-linecap="round" stroke-linejoin="round"/><path d="M40.8 48.9 L39.8 49.0 L39.0 49.2 L38.2 49.5 L37.4 49.8 L36.7 50.1" stroke="#2f8ca3" stroke-width="1.50" opacity="1.00" fill="none" stroke-linecap="round" stroke-linejoin="round"/><path d="M36.7 50.1 L36.1 50.5 L35.5 50.9 L34.9 51.3 L34.4 51.7 L33.9 52.2 L33.4 52.7 L33.0 53.2" stroke="#2f8ca3" stroke-width="1.50" opacity="1.00" fill="none" stroke-linecap="round" stroke-linejoin="round"/><path d="M32.6 53.8 L32.2 54.4 L31.9 54.9 L31.6 55.6 L31.3 56.2 L31.0 56.8 L30.8 57.5 L30.6 58.1 L30.4 58.8 L30.3 59.5" stroke="#2f8ca3" stroke-width="1.33" opacity="0.83" fill="none" stroke-linecap="round" stroke-linejoin="round"/><path d="M30.3 59.5 L30.2 60.2 L30.1 60.9 L30.1 61.6 L30.1 62.3 L30.1 63.0 L30.1 63.7 L30.2 64.5 L30.3 65.2 L30.4 65.9 L30.6 66.6 L30.7 67.4 L30.9 68.1" stroke="#2f8ca3" stroke-width="0.93" opacity="0.41" fill="none" stroke-linecap="round" stroke-linejoin="round"/><path d="M30.9 68.1 L31.2 68.8 L31.5 69.6 L31.7 70.3 L32.1 71.0 L32.4 71.7 L32.8 72.4 L33.2 73.1 L33.6 73.8 L34.1 74.4 L34.6 75.1 L35.1 75.8 L35.6 76.4 L36.2 77.0 L36.7 77.6 L37.3 78.2" stroke="#2f8ca3" stroke-width="0.58" opacity="0.06" fill="none" stroke-linecap="round" stroke-linejoin="round"/><path d="M56.7 45.8 L57.4 45.0" stroke="#2f8ca3" stroke-width="1.50" opacity="1.00" fill="none" stroke-linecap="round" stroke-linejoin="round"/><path d="M57.4 45.0 L58.1 44.3 L58.6 43.5 L59.1 42.8 L59.4 42.1 L59.8 41.4" stroke="#2f8ca3" stroke-width="1.50" opacity="1.00" fill="none" stroke-linecap="round" stroke-linejoin="round"/><path d="M60.0 40.7 L60.2 40.0 L60.4 39.3 L60.5 38.6 L60.6 37.9 L60.6 37.2 L60.6 36.5 L60.5 35.9" stroke="#2f8ca3" stroke-width="1.50" opacity="1.00" fill="none" stroke-linecap="round" stroke-linejoin="round"/><path d="M60.5 35.9 L60.5 35.2 L60.3 34.5 L60.2 33.8 L60.0 33.2 L59.8 32.5 L59.5 31.9 L59.2 31.3 L58.9 30.7 L58.6 30.1 L58.2 29.5" stroke="#2f8ca3" stroke-width="1.33" opacity="0.83" fill="none" stroke-linecap="round" stroke-linejoin="round"/><path d="M58.2 29.5 L57.8 28.9 L57.4 28.3 L57.0 27.8 L56.5 27.2 L56.0 26.7 L55.4 26.2 L54.9 25.7 L54.3 25.3 L53.7 24.8 L53.1 24.4 L52.5 24.0 L51.8 23.6" stroke="#2f8ca3" stroke-width="0.93" opacity="0.41" fill="none" stroke-linecap="round" stroke-linejoin="round"/><path d="M51.8 23.6 L51.2 23.2 L50.5 22.8 L49.8 22.5 L49.0 22.2 L48.3 21.9 L47.5 21.7 L46.8 21.4 L46.0 21.2 L45.2 21.0 L44.4 20.9 L43.6 20.7 L42.7 20.6 L41.9 20.5 L41.1 20.5" stroke="#2f8ca3" stroke-width="0.58" opacity="0.06" fill="none" stroke-linecap="round" stroke-linejoin="round"/><path d="M47.8 59.3 L47.8 60.2 L47.9 61.1 L48.1 61.9 L48.3 62.6" stroke="#2f8ca3" stroke-width="1.50" opacity="1.00" fill="none" stroke-linecap="round" stroke-linejoin="round"/><path d="M48.6 63.4 L48.9 64.0 L49.2 64.7 L49.6 65.3 L50.0 65.9 L50.4 66.4 L50.8 66.9 L51.3 67.4" stroke="#2f8ca3" stroke-width="1.50" opacity="1.00" fill="none" stroke-linecap="round" stroke-linejoin="round"/><path d="M51.3 67.4 L51.8 67.9 L52.3 68.3 L52.9 68.7 L53.4 69.1 L54.0 69.4 L54.6 69.7 L55.3 70.0 L55.9 70.3 L56.6 70.5 L57.2 70.8" stroke="#2f8ca3" stroke-width="1.33" opacity="0.83" fill="none" stroke-linecap="round" stroke-linejoin="round"/><path d="M57.2 70.8 L57.9 70.9 L58.6 71.1 L59.3 71.2 L60.0 71.3 L60.7 71.4 L61.4 71.4 L62.2 71.4 L62.9 71.4 L63.6 71.4 L64.4 71.3 L65.1 71.2 L65.9 71.1" stroke="#2f8ca3" stroke-width="0.93" opacity="0.41" fill="none" stroke-linecap="round" stroke-linejoin="round"/><path d="M65.9 71.1 L66.6 70.9 L67.4 70.7 L68.1 70.5 L68.9 70.3 L69.6 70.0 L70.4 69.7 L71.1 69.4 L71.8 69.0 L72.5 68.6 L73.3 68.2 L74.0 67.8 L74.7 67.3 L75.3 66.9 L76.0 66.3" stroke="#2f8ca3" stroke-width="0.58" opacity="0.06" fill="none" stroke-linecap="round" stroke-linejoin="round"/><path d="M45.7 41.8 L45.1 41.1 L44.4 40.5 L43.8 40.0 L43.1 39.6 L42.5 39.2" stroke="#2f8ca3" stroke-width="1.50" opacity="1.00" fill="none" stroke-linecap="round" stroke-linejoin="round"/><path d="M42.5 39.2 L41.8 38.8 L41.1 38.6 L40.4 38.3 L39.8 38.2 L39.1 38.0 L38.4 37.9 L37.7 37.8" stroke="#2f8ca3" stroke-width="1.50" opacity="1.00" fill="none" stroke-linecap="round" stroke-linejoin="round"/><path d="M37.0 37.8 L36.4 37.8 L35.7 37.9 L35.0 38.0 L34.3 38.1 L33.7 38.2 L33.0 38.4 L32.4 38.6 L31.7 38.9 L31.1 39.1" stroke="#2f8ca3" stroke-width="1.33" opacity="0.83" fill="none" stroke-linecap="round" stroke-linejoin="round"/><path d="M30.4 39.5 L29.8 39.8 L29.2 40.1 L28.6 40.5 L28.0 40.9 L27.4 41.4 L26.9 41.9 L26.3 42.3 L25.8 42.9 L25.3 43.4 L24.8 44.0 L24.3 44.6" stroke="#2f8ca3" stroke-width="0.93" opacity="0.41" fill="none" stroke-linecap="round" stroke-linejoin="round"/><path d="M24.3 44.6 L23.9 45.2 L23.4 45.8 L23.0 46.4 L22.6 47.1 L22.2 47.8 L21.8 48.5 L21.5 49.2 L21.2 50.0 L20.9 50.7 L20.6 51.5 L20.3 52.3 L20.1 53.1 L19.9 53.9 L19.7 54.7 L19.6 55.6" stroke="#2f8ca3" stroke-width="0.58" opacity="0.06" fill="none" stroke-linecap="round" stroke-linejoin="round"/><path d="M59.2 53.4 L60.1 53.4 L61.0 53.4 L61.8 53.3 L62.6 53.2" stroke="#2f8ca3" stroke-width="1.50" opacity="1.00" fill="none" stroke-linecap="round" stroke-linejoin="round"/><path d="M63.3 53.0 L64.0 52.8 L64.7 52.5 L65.3 52.2 L65.9 51.9 L66.5 51.5 L67.1 51.1 L67.6 50.7" stroke="#2f8ca3" stroke-width="1.50" opacity="1.00" fill="none" stroke-linecap="round" stroke-linejoin="round"/><path d="M67.6 50.7 L68.1 50.2 L68.6 49.8 L69.0 49.2 L69.5 48.7 L69.9 48.2 L70.3 47.6 L70.6 47.0 L71.0 46.4 L71.3 45.8 L71.5 45.2" stroke="#2f8ca3" stroke-width="1.33" opacity="0.83" fill="none" stroke-linecap="round" stroke-linejoin="round"/><path d="M71.5 45.2 L71.8 44.5 L72.0 43.8 L72.2 43.1 L72.4 42.5 L72.5 41.7 L72.7 41.0 L72.8 40.3 L72.8 39.6 L72.9 38.8 L72.9 38.1 L72.9 37.3 L72.8 36.6" stroke="#2f8ca3" stroke-width="0.93" opacity="0.41" fill="none" stroke-linecap="round" stroke-linejoin="round"/><path d="M72.8 36.6 L72.7 35.8 L72.6 35.0 L72.5 34.3 L72.3 33.5 L72.2 32.7 L71.9 31.9 L71.7 31.2 L71.4 30.4 L71.1 29.7 L70.8 28.9 L70.5 28.1 L70.1 27.4 L69.7 26.7 L69.2 25.9" stroke="#2f8ca3" stroke-width="0.58" opacity="0.06" fill="none" stroke-linecap="round" stroke-linejoin="round"/><path d="M40.4 54.0 L39.7 54.6 L39.2 55.1 L38.7 55.7" stroke="#2f8ca3" stroke-width="1.50" opacity="1.00" fill="none" stroke-linecap="round" stroke-linejoin="round"/><path d="M38.2 56.4 L37.8 57.0 L37.5 57.6 L37.2 58.3 L36.9 58.9 L36.7 59.6 L36.6 60.2 L36.4 60.9" stroke="#2f8ca3" stroke-width="1.50" opacity="1.00" fill="none" stroke-linecap="round" stroke-linejoin="round"/><path d="M36.4 60.9 L36.3 61.6 L36.3 62.3 L36.2 62.9 L36.3 63.6 L36.3 64.3 L36.4 65.0 L36.5 65.7 L36.6 66.3 L36.8 67.0 L37.0 67.7" stroke="#2f8ca3" stroke-width="1.33" opacity="0.83" fill="none" stroke-linecap="round" stroke-linejoin="round"/><path d="M37.0 67.7 L37.2 68.3 L37.5 69.0 L37.8 69.6 L38.1 70.3 L38.5 70.9 L38.8 71.5 L39.2 72.1 L39.7 72.7 L40.1 73.3 L40.6 73.9 L41.1 74.5 L41.7 75.0" stroke="#2f8ca3" stroke-width="0.93" opacity="0.41" fill="none" stroke-linecap="round" stroke-linejoin="round"/><path d="M41.7 75.0 L42.2 75.5 L42.8 76.0 L43.4 76.5 L44.0 77.0 L44.6 77.5 L45.3 77.9 L46.0 78.3 L46.7 78.7 L47.4 79.1 L48.2 79.5 L48.9 79.8 L49.7 80.1 L50.5 80.4 L51.3 80.7" stroke="#2f8ca3" stroke-width="0.58" opacity="0.06" fill="none" stroke-linecap="round" stroke-linejoin="round"/><path d="M54.6 40.1 L54.7 39.3 L54.7 38.5 L54.6 37.7" stroke="#2f8ca3" stroke-width="1.50" opacity="1.00" fill="none" stroke-linecap="round" stroke-linejoin="round"/><path d="M54.6 37.7 L54.5 37.0 L54.4 36.2 L54.2 35.6 L54.0 34.9 L53.7 34.2 L53.4 33.6 L53.1 33.0 L52.7 32.5" stroke="#2f8ca3" stroke-width="1.50" opacity="1.00" fill="none" stroke-linecap="round" stroke-linejoin="round"/><path d="M52.7 32.5 L52.3 31.9 L51.9 31.4 L51.4 30.9 L50.9 30.4 L50.4 29.9 L49.9 29.5 L49.4 29.0 L48.8 28.7 L48.2 28.3" stroke="#2f8ca3" stroke-width="1.33" opacity="0.83" fill="none" stroke-linecap="round" stroke-linejoin="round"/><path d="M47.6 27.9 L47.0 27.6 L46.3 27.3 L45.7 27.0 L45.0 26.8 L44.3 26.6 L43.6 26.4 L42.9 26.2 L42.2 26.0 L41.4 25.9 L40.7 25.8 L39.9 25.8 L39.2 25.7" stroke="#2f8ca3" stroke-width="0.93" opacity="0.41" fill="none" stroke-linecap="round" stroke-linejoin="round"/><path d="M39.9 25.8 L39.2 25.7 L38.4 25.7 L37.6 25.7 L36.9 25.8 L36.1 25.9 L35.3 26.0 L34.5 26.1 L33.7 26.2 L32.9 26.4 L32.1 26.6 L31.3 26.9 L30.5 27.1 L29.8 27.4 L29.0 27.7 L28.2 28.1" stroke="#2f8ca3" stroke-width="0.58" opacity="0.06" fill="none" stroke-linecap="round" stroke-linejoin="round"/><path d="M53.4 60.9 L54.0 61.5 L54.5 62.1" stroke="#2f8ca3" stroke-width="1.50" opacity="1.00" fill="none" stroke-linecap="round" stroke-linejoin="round"/><path d="M55.1 62.6 L55.6 63.0 L56.2 63.5 L56.8 63.8 L57.5 64.1 L58.1 64.4 L58.7 64.6 L59.4 64.9" stroke="#2f8ca3" stroke-width="1.50" opacity="1.00" fill="none" stroke-linecap="round" stroke-linejoin="round"/><path d="M59.4 64.9 L60.0 65.0 L60.7 65.1 L61.4 65.2 L62.1 65.3 L62.7 65.3 L63.4 65.3 L64.1 65.3 L64.8 65.2 L65.5 65.1 L66.2 65.0" stroke="#2f8ca3" stroke-width="1.33" opacity="0.83" fill="none" stroke-linecap="round" stroke-linejoin="round"/><path d="M66.2 65.0 L66.9 64.8 L67.5 64.6 L68.2 64.4 L68.9 64.2 L69.6 63.9 L70.2 63.6 L70.9 63.2 L71.5 62.9 L72.1 62.5 L72.8 62.1 L73.4 61.6 L74.0 61.2" stroke="#2f8ca3" stroke-width="0.93" opacity="0.41" fill="none" stroke-linecap="round" stroke-linejoin="round"/><path d="M74.0 61.2 L74.6 60.7 L75.1 60.2 L75.7 59.6 L76.2 59.0 L76.8 58.5 L77.3 57.8 L77.8 57.2 L78.3 56.6 L78.7 55.9 L79.2 55.2 L79.6 54.5 L80.0 53.7 L80.4 53.0 L80.7 52.2" stroke="#2f8ca3" stroke-width="0.58" opacity="0.06" fill="none" stroke-linecap="round" stroke-linejoin="round"/><path d="M39.7 44.0 L38.9 43.9 L38.1 43.9" stroke="#2f8ca3" stroke-width="1.50" opacity="1.00" fill="none" stroke-linecap="round" stroke-linejoin="round"/><path d="M38.1 43.9 L37.4 43.9 L36.7 44.0 L36.0 44.1 L35.3 44.3 L34.6 44.5 L34.0 44.7 L33.3 45.0" stroke="#2f8ca3" stroke-width="1.50" opacity="1.00" fill="none" stroke-linecap="round" stroke-linejoin="round"/><path d="M32.7 45.3 L32.1 45.6 L31.6 46.0 L31.0 46.4 L30.5 46.8 L30.0 47.3 L29.5 47.7 L29.0 48.2 L28.5 48.8 L28.1 49.3" stroke="#2f8ca3" stroke-width="1.33" opacity="0.83" fill="none" stroke-linecap="round" stroke-linejoin="round"/><path d="M28.1 49.3 L27.7 49.9 L27.3 50.5 L26.9 51.1 L26.6 51.7 L26.3 52.3 L26.0 53.0 L25.7 53.7 L25.4 54.4 L25.2 55.1 L25.0 55.8 L24.8 56.5 L24.7 57.3" stroke="#2f8ca3" stroke-width="0.93" opacity="0.41" fill="none" stroke-linecap="round" stroke-linejoin="round"/><path d="M24.7 57.3 L24.6 58.0 L24.5 58.8 L24.4 59.6 L24.4 60.3 L24.4 61.1 L24.4 61.9 L24.4 62.7 L24.5 63.5 L24.6 64.3 L24.7 65.2 L24.8 66.0 L25.0 66.8 L25.2 67.6 L25.4 68.4" stroke="#2f8ca3" stroke-width="0.58" opacity="0.06" fill="none" stroke-linecap="round" stroke-linejoin="round"/><circle cx="43.9" cy="33.0" r="0.49" fill="#0a0a0a" opacity="0.03"/><circle cx="66.2" cy="58.5" r="0.52" fill="#0a0a0a" opacity="0.05"/><circle cx="32.0" cy="54.8" r="0.54" fill="#0a0a0a" opacity="0.07"/><circle cx="60.2" cy="34.1" r="0.57" fill="#0a0a0a" opacity="0.09"/><circle cx="53.3" cy="69.0" r="0.61" fill="#0a0a0a" opacity="0.11"/><circle cx="34.6" cy="38.0" r="0.64" fill="#0a0a0a" opacity="0.13"/><circle cx="69.8" cy="48.4" r="0.68" fill="#0a0a0a" opacity="0.16"/><circle cx="36.3" cy="64.8" r="0.72" fill="#0a0a0a" opacity="0.19"/><circle cx="50.1" cy="29.6" r="0.76" fill="#0a0a0a" opacity="0.21"/><circle cx="63.9" cy="65.3" r="0.80" fill="#0a0a0a" opacity="0.24"/><circle cx="29.2" cy="48.1" r="0.84" fill="#0a0a0a" opacity="0.27"/><circle cx="66.9" cy="37.2" r="0.89" fill="#0a0a0a" opacity="0.30"/><circle cx="46.2" cy="71.1" r="0.93" fill="#0a0a0a" opacity="0.33"/><circle cx="38.4" cy="31.6" r="0.98" fill="#0a0a0a" opacity="0.36"/><circle cx="71.2" cy="55.8" r="1.02" fill="#0a0a0a" opacity="0.39"/><circle cx="30.2" cy="60.2" r="1.07" fill="#0a0a0a" opacity="0.42"/><circle cx="57.8" cy="28.9" r="1.11" fill="#0a0a0a" opacity="0.46"/><circle cx="58.6" cy="71.1" r="1.15" fill="#0a0a0a" opacity="0.49"/><circle cx="29.2" cy="40.1" r="1.20" fill="#0a0a0a" opacity="0.52"/><circle cx="72.2" cy="43.1" r="1.24" fill="#0a0a0a" opacity="0.55"/><circle cx="38.1" cy="70.3" r="1.28" fill="#0a0a0a" opacity="0.58"/><circle cx="45.0" cy="26.8" r="1.33" fill="#0a0a0a" opacity="0.60"/><circle cx="69.6" cy="63.9" r="1.37" fill="#0a0a0a" opacity="0.63"/><circle cx="26.0" cy="53.0" r="1.41" fill="#0a0a0a" opacity="0.66"/><circle cx="65.8" cy="31.4" r="1.45" fill="#0a0a0a" opacity="0.69"/><circle cx="50.9" cy="74.7" r="1.48" fill="#0a0a0a" opacity="0.71"/><circle cx="32.5" cy="32.3" r="1.52" fill="#0a0a0a" opacity="0.74"/><circle cx="75.1" cy="51.3" r="1.56" fill="#0a0a0a" opacity="0.76"/><circle cx="30.4" cy="66.2" r="1.59" fill="#0a0a0a" opacity="0.79"/><circle cx="53.5" cy="24.7" r="1.62" fill="#0a0a0a" opacity="0.81"/><circle cx="64.6" cy="71.3" r="1.65" fill="#0a0a0a" opacity="0.83"/><circle cx="24.6" cy="44.2" r="1.68" fill="#0a0a0a" opacity="0.85"/><circle cx="72.8" cy="37.1" r="1.71" fill="#0a0a0a" opacity="0.87"/><circle cx="41.8" cy="75.2" r="1.74" fill="#0a0a0a" opacity="0.89"/><circle cx="38.9" cy="25.7" r="1.76" fill="#0a0a0a" opacity="0.90"/><circle cx="74.8" cy="60.5" r="1.78" fill="#0a0a0a" opacity="0.92"/><circle cx="24.5" cy="59.0" r="1.80" fill="#0a0a0a" opacity="0.93"/><circle cx="62.8" cy="25.9" r="1.82" fill="#0a0a0a" opacity="0.95"/><circle cx="56.9" cy="76.6" r="1.84" fill="#0a0a0a" opacity="0.96"/><circle cx="26.8" cy="34.9" r="1.85" fill="#0a0a0a" opacity="0.97"/><circle cx="77.5" cy="45.4" r="1.87" fill="#0a0a0a" opacity="0.98"/><circle cx="32.7" cy="72.2" r="1.88" fill="#0a0a0a" opacity="0.98"/><circle cx="47.8" cy="21.8" r="1.89" fill="#0a0a0a" opacity="0.99"/><circle cx="70.9" cy="69.5" r="1.89" fill="#0a0a0a" opacity="1.00"/><circle cx="21.3" cy="49.7" r="1.90" fill="#0a0a0a" opacity="1.00"/><circle cx="71.5" cy="30.7" r="1.90" fill="#0a0a0a" opacity="1.00"/><circle cx="47.2" cy="79.0" r="1.90" fill="#0a0a0a" opacity="1.00"/><circle cx="32.4" cy="26.6" r="1.90" fill="#0a0a0a" opacity="1.00"/><circle cx="79.0" cy="55.4" r="1.90" fill="#0a0a0a" opacity="1.00"/><circle cx="24.8" cy="65.7" r="1.90" fill="#0a0a0a" opacity="1.00"/><circle cx="58.0" cy="21.2" r="1.90" fill="#0a0a0a" opacity="1.00"/><circle cx="63.6" cy="76.8" r="1.90" fill="#0a0a0a" opacity="1.00"/><circle cx="21.7" cy="39.3" r="1.90" fill="#0a0a0a" opacity="1.00"/><circle cx="78.3" cy="38.7" r="1.90" fill="#0a0a0a" opacity="1.00"/><circle cx="36.7" cy="77.6" r="1.90" fill="#0a0a0a" opacity="1.00"/><circle cx="41.1" cy="20.5" r="1.90" fill="#0a0a0a" opacity="1.00"/><circle cx="76.7" cy="65.8" r="1.90" fill="#0a0a0a" opacity="1.00"/><circle cx="19.5" cy="56.4" r="1.90" fill="#0a0a0a" opacity="1.00"/><circle cx="68.3" cy="24.5" r="1.90" fill="#0a0a0a" opacity="1.00"/><circle cx="53.8" cy="81.3" r="1.90" fill="#0a0a0a" opacity="1.00"/><circle cx="25.9" cy="29.3" r="1.90" fill="#0a0a0a" opacity="1.00"/><circle cx="81.9" cy="49.0" r="1.90" fill="#0a0a0a" opacity="1.00"/><circle cx="27.0" cy="72.4" r="1.90" fill="#0a0a0a" opacity="1.00"/><circle cx="51.8" cy="17.8" r="1.90" fill="#0a0a0a" opacity="1.00"/><circle cx="70.6" cy="75.1" r="1.90" fill="#0a0a0a" opacity="1.00"/><circle cx="17.7" cy="45.3" r="1.90" fill="#0a0a0a" opacity="1.00"/><circle cx="77.1" cy="31.5" r="1.90" fill="#0a0a0a" opacity="1.00"/><circle cx="42.4" cy="82.1" r="1.90" fill="#0a0a0a" opacity="1.00"/><circle cx="33.8" cy="21.1" r="1.90" fill="#0a0a0a" opacity="1.00"/><circle cx="81.6" cy="60.4" r="1.90" fill="#0a0a0a" opacity="1.00"/><circle cx="19.5" cy="63.8" r="1.90" fill="#0a0a0a" opacity="1.00"/><circle cx="63.3" cy="19.1" r="1.90" fill="#0a0a0a" opacity="1.00"/><circle cx="61.1" cy="81.9" r="1.90" fill="#0a0a0a" opacity="1.00"/><circle cx="20.1" cy="33.9" r="1.90" fill="#0a0a0a" opacity="1.00"/><circle cx="83.1" cy="41.6" r="1.90" fill="#0a0a0a" opacity="1.00"/><circle cx="31.2" cy="78.7" r="1.90" fill="#0a0a0a" opacity="1.00"/><circle cx="44.5" cy="15.9" r="1.90" fill="#0a0a0a" opacity="1.00"/><circle cx="77.2" cy="71.5" r="1.90" fill="#0a0a0a" opacity="1.00"/><circle cx="15.3" cy="52.5" r="1.90" fill="#0a0a0a" opacity="1.00"/><circle cx="74.0" cy="24.5" r="1.90" fill="#0a0a0a" opacity="1.00"/><circle cx="49.5" cy="85.1" r="1.90" fill="#0a0a0a" opacity="1.00"/><circle cx="26.5" cy="23.6" r="1.90" fill="#0a0a0a" opacity="1.00"/><circle cx="85.3" cy="53.6" r="1.90" fill="#0a0a0a" opacity="1.00"/><circle cx="21.4" cy="71.3" r="1.90" fill="#0a0a0a" opacity="1.00"/><circle cx="56.7" cy="14.8" r="1.90" fill="#0a0a0a" opacity="1.00"/><circle cx="68.9" cy="80.6" r="1.90" fill="#0a0a0a" opacity="1.00"/><circle cx="15.3" cy="40.1" r="1.90" fill="#0a0a0a" opacity="1.00"/><circle cx="82.4" cy="33.8" r="1.90" fill="#0a0a0a" opacity="1.00"/><circle cx="37.0" cy="84.0" r="1.90" fill="#0a0a0a" opacity="1.00"/><circle cx="36.5" cy="16.0" r="1.90" fill="#0a0a0a" opacity="1.00"/><circle cx="83.0" cy="66.1" r="1.90" fill="#0a0a0a" opacity="1.00"/><circle cx="14.6" cy="60.5" r="1.90" fill="#0a0a0a" opacity="1.00"/><circle cx="69.0" cy="18.2" r="1.90" fill="#0a0a0a" opacity="1.00"/><circle cx="57.5" cy="86.4" r="1.90" fill="#0a0a0a" opacity="1.00"/><circle cx="19.8" cy="28.1" r="1.90" fill="#0a0a0a" opacity="1.00"/><circle cx="87.3" cy="45.7" r="1.90" fill="#0a0a0a" opacity="1.00"/><circle cx="25.3" cy="78.4" r="1.90" fill="#0a0a0a" opacity="1.00"/><circle cx="49.0" cy="12.2" r="1.90" fill="#0a0a0a" opacity="1.00"/><circle cx="76.4" cy="77.3" r="1.90" fill="#0a0a0a" opacity="1.00"/><circle cx="12.0" cy="47.7" r="1.90" fill="#0a0a0a" opacity="1.00"/><circle cx="79.7" cy="25.9" r="1.90" fill="#0a0a0a" opacity="1.00"/><circle cx="44.3" cy="88.0" r="1.90" fill="#0a0a0a" opacity="1.00"/><circle cx="28.4" cy="18.0" r="1.90" fill="#0a0a0a" opacity="1.00"/><circle cx="87.6" cy="59.0" r="1.90" fill="#0a0a0a" opacity="1.00"/><circle cx="16.0" cy="68.8" r="1.90" fill="#0a0a0a" opacity="1.00"/><circle cx="62.4" cy="13.0" r="1.90" fill="#0a0a0a" opacity="1.00"/><circle cx="65.9" cy="85.8" r="1.90" fill="#0a0a0a" opacity="1.00"/><circle cx="14.0" cy="34.3" r="1.90" fill="#0a0a0a" opacity="1.00"/><circle cx="87.3" cy="37.2" r="1.90" fill="#0a0a0a" opacity="1.00"/><circle cx="31.1" cy="84.8" r="1.90" fill="#0a0a0a" opacity="1.00"/><circle cx="40.4" cy="11.5" r="1.90" fill="#0a0a0a" opacity="1.00"/><circle cx="83.2" cy="72.0" r="1.90" fill="#0a0a0a" opacity="1.00"/><circle cx="10.5" cy="56.2" r="1.90" fill="#0a0a0a" opacity="1.00"/><circle cx="75.0" cy="18.6" r="1.90" fill="#0a0a0a" opacity="1.00"/><circle cx="52.7" cy="90.2" r="1.90" fill="#0a0a0a" opacity="1.00"/><circle cx="20.7" cy="22.1" r="1.90" fill="#0a0a0a" opacity="1.00"/><circle cx="90.6" cy="50.8" r="1.90" fill="#0a0a0a" opacity="1.00"/><circle cx="19.5" cy="76.9" r="1.90" fill="#0a0a0a" opacity="1.00"/><circle cx="54.4" cy="9.4" r="1.90" fill="#0a0a0a" opacity="1.00"/><circle cx="74.3" cy="83.0" r="1.90" fill="#0a0a0a" opacity="1.00"/><circle cx="9.7" cy="42.0" r="1.90" fill="#0a0a0a" opacity="1.00"/><circle cx="85.2" cy="28.5" r="1.90" fill="#0a0a0a" opacity="1.00"/><circle cx="38.5" cy="89.8" r="1.90" fill="#0a0a0a" opacity="1.00"/><circle cx="31.6" cy="12.8" r="1.90" fill="#0a0a0a" opacity="1.00"/><circle cx="88.9" cy="65.1" r="1.90" fill="#0a0a0a" opacity="1.00"/><circle cx="11.0" cy="65.2" r="1.90" fill="#0a0a0a" opacity="1.00"/><circle cx="68.5" cy="12.4" r="1.90" fill="#0a0a0a" opacity="1.00"/><circle cx="61.8" cy="90.4" r="1.90" fill="#0a0a0a" opacity="1.00"/><circle cx="13.9" cy="28.1" r="1.90" fill="#0a0a0a" opacity="1.00"/><circle cx="91.5" cy="41.7" r="1.90" fill="#0a0a0a" opacity="1.00"/><circle cx="24.9" cy="84.3" r="1.90" fill="#0a0a0a" opacity="1.00"/><circle cx="45.3" cy="7.6" r="1.90" fill="#0a0a0a" opacity="1.00"/><circle cx="82.1" cy="78.2" r="1.90" fill="#0a0a0a" opacity="1.00"/><circle cx="7.1" cy="50.9" r="1.90" fill="#0a0a0a" opacity="1.00"/><circle cx="81.1" cy="20.3" r="1.90" fill="#0a0a0a" opacity="1.00"/><circle cx="47.2" cy="93.1" r="1.90" fill="#0a0a0a" opacity="1.00"/><circle cx="22.9" cy="16.2" r="1.90" fill="#0a0a0a" opacity="1.00"/><circle cx="92.9" cy="56.6" r="1.90" fill="#0a0a0a" opacity="1.00"/><circle cx="13.8" cy="74.2" r="1.90" fill="#0a0a0a" opacity="1.00"/><circle cx="60.4" cy="7.6" r="1.90" fill="#0a0a0a" opacity="1.00"/><circle cx="71.0" cy="88.4" r="1.90" fill="#0a0a0a" opacity="1.00"/><circle cx="8.4" cy="35.8" r="1.90" fill="#0a0a0a" opacity="1.00"/></svg>
